<svg width="841" height="703" viewBox="0 0 841 703" fill="none" xmlns="http://www.w3.org/2000/svg">
<g opacity="0.6">
<path fill-rule="evenodd" clip-rule="evenodd" d="M700.711 504.152C710.361 569.476 476.337 612.085 274.908 582.349C73.4782 552.614 -18.9281 436.493 77.1907 374.62C173.31 312.746 691.061 438.828 700.711 504.152Z" fill="#89C5CC"/>
</g>
<rect x="138" y="76" width="159" height="302" rx="8" fill="#F2F2F2"/>
<path fill-rule="evenodd" clip-rule="evenodd" d="M217 359C225.284 359 232 352.284 232 344C232 335.716 225.284 329 217 329C208.716 329 202 335.716 202 344C202 352.284 208.716 359 217 359Z" fill="white"/>
<path fill-rule="evenodd" clip-rule="evenodd" d="M204 96C205.105 96 206 95.1046 206 94C206 92.8954 205.105 92 204 92C202.895 92 202 92.8954 202 94C202 95.1046 202.895 96 204 96Z" fill="white"/>
<rect x="211" y="92" width="21" height="4" rx="2" fill="white"/>
<rect x="152" y="104" width="131" height="54" rx="4" fill="white"/>
<rect x="191" y="120.2" width="73" height="8.1" rx="3" fill="#DDE3E9"/>
<rect x="191" y="133.7" width="49" height="8.1" rx="3" fill="#DDE3E9"/>
<path fill-rule="evenodd" clip-rule="evenodd" d="M173 143C179.627 143 185 137.627 185 131C185 124.373 179.627 119 173 119C166.373 119 161 124.373 161 131C161 137.627 166.373 143 173 143Z" fill="#C5CFD6"/>
<rect x="152" y="166" width="131" height="42" rx="4" fill="white"/>
<rect x="191" y="178.6" width="73" height="6.3" rx="3" fill="#DDE3E9"/>
<rect x="191" y="189.1" width="49" height="6.3" rx="3" fill="#DDE3E9"/>
<path fill-rule="evenodd" clip-rule="evenodd" d="M173 199C179.627 199 185 193.627 185 187C185 180.373 179.627 175 173 175C166.373 175 161 180.373 161 187C161 193.627 166.373 199 173 199Z" fill="#C5CFD6"/>
<rect x="152" y="216" width="131" height="42" rx="4" fill="white"/>
<rect x="191" y="228.6" width="73" height="6.3" rx="3" fill="#DDE3E9"/>
<rect x="191" y="239.1" width="49" height="6.3" rx="3" fill="#DDE3E9"/>
<path fill-rule="evenodd" clip-rule="evenodd" d="M173 249C179.627 249 185 243.627 185 237C185 230.373 179.627 225 173 225C166.373 225 161 230.373 161 237C161 243.627 166.373 249 173 249Z" fill="#AFB9C5"/>
<rect x="152" y="266" width="131" height="42" rx="4" fill="white"/>
<rect x="191" y="278.6" width="73" height="6.3" rx="3" fill="#DDE3E9"/>
<rect x="191" y="289.1" width="49" height="6.3" rx="3" fill="#DDE3E9"/>
<path fill-rule="evenodd" clip-rule="evenodd" d="M173 299C179.627 299 185 293.627 185 287C185 280.373 179.627 275 173 275C166.373 275 161 280.373 161 287C161 293.627 166.373 299 173 299Z" fill="#C5CFD6"/>
<rect x="204" y="102" width="159" height="302" rx="8" fill="#DDE3E9"/>
<path fill-rule="evenodd" clip-rule="evenodd" d="M283 385C291.284 385 298 378.284 298 370C298 361.716 291.284 355 283 355C274.716 355 268 361.716 268 370C268 378.284 274.716 385 283 385Z" fill="white"/>
<path fill-rule="evenodd" clip-rule="evenodd" d="M270 122C271.105 122 272 121.105 272 120C272 118.895 271.105 118 270 118C268.895 118 268 118.895 268 120C268 121.105 268.895 122 270 122Z" fill="white"/>
<rect x="277" y="118" width="21" height="4" rx="2" fill="white"/>
<rect x="218" y="130" width="131" height="54" rx="4" fill="white"/>
<rect x="227" y="146.2" width="73" height="8.1" rx="3" fill="#DDE3E9"/>
<rect x="227" y="159.7" width="49" height="8.1" rx="3" fill="#DDE3E9"/>
<path fill-rule="evenodd" clip-rule="evenodd" d="M335 164C338.866 164 342 160.866 342 157C342 153.134 338.866 150 335 150C331.134 150 328 153.134 328 157C328 160.866 331.134 164 335 164Z" fill="#DDE3E9"/>
<path fill-rule="evenodd" clip-rule="evenodd" d="M335 160C336.657 160 338 158.657 338 157C338 155.343 336.657 154 335 154C333.343 154 332 155.343 332 157C332 158.657 333.343 160 335 160Z" fill="#F2F2F2"/>
<rect x="218" y="192" width="131" height="42" rx="4" fill="white"/>
<rect x="257" y="204.6" width="73" height="6.3" rx="3" fill="#DDE3E9"/>
<rect x="257" y="215.1" width="49" height="6.3" rx="3" fill="#DDE3E9"/>
<path fill-rule="evenodd" clip-rule="evenodd" d="M239 225C245.627 225 251 219.627 251 213C251 206.373 245.627 201 239 201C232.373 201 227 206.373 227 213C227 219.627 232.373 225 239 225Z" fill="#C5CFD6"/>
<rect x="218" y="242" width="131" height="42" rx="4" fill="white"/>
<rect x="227" y="254.6" width="73" height="6.3" rx="3" fill="#DDE3E9"/>
<rect x="227" y="265.1" width="49" height="6.3" rx="3" fill="#AFB9C5"/>
<path fill-rule="evenodd" clip-rule="evenodd" d="M335 270C338.866 270 342 266.866 342 263C342 259.134 338.866 256 335 256C331.134 256 328 259.134 328 263C328 266.866 331.134 270 335 270Z" fill="#DDE3E9"/>
<path fill-rule="evenodd" clip-rule="evenodd" d="M335 266C336.657 266 338 264.657 338 263C338 261.343 336.657 260 335 260C333.343 260 332 261.343 332 263C332 264.657 333.343 266 335 266Z" fill="#F2F2F2"/>
<rect x="218" y="292" width="131" height="42" rx="4" fill="white"/>
<rect x="257" y="304.6" width="73" height="6.3" rx="3" fill="#DDE3E9"/>
<rect x="257" y="315.1" width="49" height="6.3" rx="3" fill="#DDE3E9"/>
<path fill-rule="evenodd" clip-rule="evenodd" d="M239 325C245.627 325 251 319.627 251 313C251 306.373 245.627 301 239 301C232.373 301 227 306.373 227 313C227 319.627 232.373 325 239 325Z" fill="#C5CFD6"/>
<rect x="270" y="127" width="335" height="346" rx="8" fill="#F2F2F2"/>
<rect x="519" y="170" width="70" height="81" rx="8" fill="white"/>
<path fill-rule="evenodd" clip-rule="evenodd" d="M554 217C562.837 217 570 209.837 570 201C570 192.163 562.837 185 554 185C545.163 185 538 192.163 538 201C538 209.837 545.163 217 554 217Z" fill="#DDE3E9"/>
<rect x="529" y="221" width="50" height="6" rx="3" fill="#DDE3E9"/>
<rect x="537" y="231" width="34" height="6" rx="3" fill="#DDE3E9"/>
<path d="M270 135C270 130.582 273.582 127 278 127H597C601.418 127 605 130.582 605 135V154H270V135Z" fill="#C5CFD6"/>
<path fill-rule="evenodd" clip-rule="evenodd" d="M283 145C285.209 145 287 143.209 287 141C287 138.791 285.209 137 283 137C280.791 137 279 138.791 279 141C279 143.209 280.791 145 283 145Z" fill="#F2F2F2"/>
<path fill-rule="evenodd" clip-rule="evenodd" d="M295 145C297.209 145 299 143.209 299 141C299 138.791 297.209 137 295 137C292.791 137 291 138.791 291 141C291 143.209 292.791 145 295 145Z" fill="#F2F2F2"/>
<path fill-rule="evenodd" clip-rule="evenodd" d="M307 145C309.209 145 311 143.209 311 141C311 138.791 309.209 137 307 137C304.791 137 303 138.791 303 141C303 143.209 304.791 145 307 145Z" fill="#F2F2F2"/>
<rect x="519" y="259" width="70" height="194" rx="8" fill="white"/>
<rect x="537" y="277" width="34" height="26" rx="4" fill="#DDE3E9"/>
<rect x="537" y="311" width="34" height="25" rx="4" fill="#AFB9C5"/>
<rect x="537" y="344" width="34" height="25" rx="4" fill="#DDE3E9"/>
<rect x="537" y="410" width="34" height="25" rx="4" fill="#DDE3E9"/>
<rect x="537" y="377" width="34" height="25" rx="4" fill="#C5CFD6"/>
<rect x="286" y="171" width="225" height="47" rx="4" fill="white"/>
<rect x="295" y="185.1" width="167" height="7.05" rx="3" fill="#DDE3E9"/>
<rect x="295" y="196.85" width="112.096" height="7.05" rx="3" fill="#DDE3E9"/>
<path fill-rule="evenodd" clip-rule="evenodd" d="M486.954 201.5C490.82 201.5 493.954 198.366 493.954 194.5C493.954 190.634 490.82 187.5 486.954 187.5C483.088 187.5 479.954 190.634 479.954 194.5C479.954 198.366 483.088 201.5 486.954 201.5Z" fill="#DDE3E9"/>
<path fill-rule="evenodd" clip-rule="evenodd" d="M486.954 197.5C488.611 197.5 489.954 196.157 489.954 194.5C489.954 192.843 488.611 191.5 486.954 191.5C485.297 191.5 483.954 192.843 483.954 194.5C483.954 196.157 485.297 197.5 486.954 197.5Z" fill="#F2F2F2"/>
<rect x="286" y="226" width="225" height="39" rx="4" fill="white"/>
<rect x="295" y="237.7" width="167" height="5.85" rx="2.925" fill="#DDE3E9"/>
<rect x="295" y="247.45" width="112.096" height="5.85" rx="2.925" fill="#DDE3E9"/>
<path fill-rule="evenodd" clip-rule="evenodd" d="M486.954 252.5C490.82 252.5 493.954 249.366 493.954 245.5C493.954 241.634 490.82 238.5 486.954 238.5C483.088 238.5 479.954 241.634 479.954 245.5C479.954 249.366 483.088 252.5 486.954 252.5Z" fill="#DDE3E9"/>
<path fill-rule="evenodd" clip-rule="evenodd" d="M486.954 248.5C488.611 248.5 489.954 247.157 489.954 245.5C489.954 243.843 488.611 242.5 486.954 242.5C485.297 242.5 483.954 243.843 483.954 245.5C483.954 247.157 485.297 248.5 486.954 248.5Z" fill="#F2F2F2"/>
<rect x="286" y="273" width="225" height="39" rx="4" fill="white"/>
<rect x="295" y="284.7" width="167" height="5.85" rx="2.925" fill="#DDE3E9"/>
<rect x="295" y="294.45" width="112.096" height="5.85" rx="2.925" fill="#DDE3E9"/>
<path fill-rule="evenodd" clip-rule="evenodd" d="M486.954 299.5C490.82 299.5 493.954 296.366 493.954 292.5C493.954 288.634 490.82 285.5 486.954 285.5C483.088 285.5 479.954 288.634 479.954 292.5C479.954 296.366 483.088 299.5 486.954 299.5Z" fill="#DDE3E9"/>
<path fill-rule="evenodd" clip-rule="evenodd" d="M486.954 295.5C488.611 295.5 489.954 294.157 489.954 292.5C489.954 290.843 488.611 289.5 486.954 289.5C485.297 289.5 483.954 290.843 483.954 292.5C483.954 294.157 485.297 295.5 486.954 295.5Z" fill="#AFB9C5"/>
<rect x="286" y="414" width="225" height="39" rx="4" fill="white"/>
<rect x="295" y="425.7" width="167" height="5.85" rx="2.925" fill="#DDE3E9"/>
<rect x="295" y="435.45" width="112.096" height="5.85" rx="2.925" fill="#DDE3E9"/>
<path fill-rule="evenodd" clip-rule="evenodd" d="M486.954 440.5C490.82 440.5 493.954 437.366 493.954 433.5C493.954 429.634 490.82 426.5 486.954 426.5C483.088 426.5 479.954 429.634 479.954 433.5C479.954 437.366 483.088 440.5 486.954 440.5Z" fill="#DDE3E9"/>
<path fill-rule="evenodd" clip-rule="evenodd" d="M486.954 436.5C488.611 436.5 489.954 435.157 489.954 433.5C489.954 431.843 488.611 430.5 486.954 430.5C485.297 430.5 483.954 431.843 483.954 433.5C483.954 435.157 485.297 436.5 486.954 436.5Z" fill="#F2F2F2"/>
<rect x="286" y="367" width="225" height="39" rx="4" fill="white"/>
<rect x="295" y="378.7" width="167" height="5.85" rx="2.925" fill="#DDE3E9"/>
<rect x="295" y="388.45" width="112.096" height="5.85" rx="2.925" fill="#DDE3E9"/>
<path fill-rule="evenodd" clip-rule="evenodd" d="M486.954 393.5C490.82 393.5 493.954 390.366 493.954 386.5C493.954 382.634 490.82 379.5 486.954 379.5C483.088 379.5 479.954 382.634 479.954 386.5C479.954 390.366 483.088 393.5 486.954 393.5Z" fill="#DDE3E9"/>
<path fill-rule="evenodd" clip-rule="evenodd" d="M486.954 389.5C488.611 389.5 489.954 388.157 489.954 386.5C489.954 384.843 488.611 383.5 486.954 383.5C485.297 383.5 483.954 384.843 483.954 386.5C483.954 388.157 485.297 389.5 486.954 389.5Z" fill="#F2F2F2"/>
<rect x="286" y="320" width="225" height="39" rx="4" fill="white"/>
<rect x="295" y="331.7" width="167" height="5.85" rx="2.925" fill="#DDE3E9"/>
<rect x="295" y="341.45" width="112.096" height="5.85" rx="2.925" fill="#DDE3E9"/>
<path fill-rule="evenodd" clip-rule="evenodd" d="M486.954 346.5C490.82 346.5 493.954 343.366 493.954 339.5C493.954 335.634 490.82 332.5 486.954 332.5C483.088 332.5 479.954 335.634 479.954 339.5C479.954 343.366 483.088 346.5 486.954 346.5Z" fill="#DDE3E9"/>
<path fill-rule="evenodd" clip-rule="evenodd" d="M486.954 342.5C488.611 342.5 489.954 341.157 489.954 339.5C489.954 337.843 488.611 336.5 486.954 336.5C485.297 336.5 483.954 337.843 483.954 339.5C483.954 341.157 485.297 342.5 486.954 342.5Z" fill="#F2F2F2"/>
<path fill-rule="evenodd" clip-rule="evenodd" d="M647.823 234.65C640.538 239.041 633.38 241.162 630.02 240.296C621.594 238.125 620.82 207.302 627.339 195.151C633.858 182.999 667.372 177.703 669.061 201.779C669.647 210.134 666.139 217.592 660.955 223.676L670.25 267H643.25L647.823 234.65Z" fill="#B28B67"/>
<path fill-rule="evenodd" clip-rule="evenodd" d="M646.473 204.438C644.137 200.96 641.895 198.308 638.979 196.767C627.109 196.955 625.719 194.827 625.719 187.655C627.636 186.283 634.401 183.973 641.976 183.323C645.841 182.217 650.419 182.425 654.829 184.27C660.273 185.815 664.883 189.141 666.919 195.369C674.286 208.083 668.695 221.317 661.16 225.838C659.154 223.461 657.403 221.158 655.842 218.954C657.096 217.728 657.875 216.018 657.875 214.125C657.875 210.397 654.853 207.375 651.125 207.375C650.851 207.375 650.581 207.391 650.315 207.423C650.147 212.084 649.457 227.853 647.644 233.33C645.506 239.788 633.031 241.374 628.68 241.374C624.922 241.374 625.05 237.815 625.142 235.265C625.155 234.897 625.167 234.551 625.167 234.239C625.167 233.588 626.015 233.589 626.972 233.591C628.216 233.594 629.644 233.597 629.644 232.17C629.644 230.615 627.496 229.423 625.573 228.355C624.373 227.689 623.261 227.072 622.814 226.447C621.404 224.473 620.929 221.81 623.057 221.81C624.22 221.81 625.815 222.48 627.735 223.287C630.633 224.505 634.27 226.033 638.271 226.033C644.881 226.033 646.453 204.705 646.473 204.438Z" fill="#191847"/>
<path fill-rule="evenodd" clip-rule="evenodd" d="M697.213 361L654.941 499.467L634.464 617.223H618.408L640.046 361H697.213Z" fill="#997659"/>
<path fill-rule="evenodd" clip-rule="evenodd" d="M712.336 361C709.465 437.026 712.844 476.241 713.486 483.148C714.129 490.055 722.928 534.842 743.76 619.542L726.651 613.655C693.729 535.973 682.51 495.6 678.734 485.399C674.958 475.199 664.929 433.732 648.648 361H712.336Z" fill="#B28B67"/>
<path fill-rule="evenodd" clip-rule="evenodd" d="M740.761 612.204C741.831 611.725 743.106 612.203 743.509 613.303C744.334 615.556 745.517 619.132 745.517 621.115C745.517 624.159 744.504 630 744.504 630C740.979 630 681.146 630 681.146 630C681.146 630 678.676 621.819 683.997 621.167C689.318 620.515 692.838 619.989 692.838 619.989L722.401 606.784C722.916 606.554 723.519 606.795 723.734 607.317L725.675 612.035C725.675 612.035 730.601 614.338 733.68 614.338C735.632 614.338 738.743 613.106 740.761 612.204Z" fill="#E4E4E4"/>
<path fill-rule="evenodd" clip-rule="evenodd" d="M635.168 612.204C636.238 611.725 637.513 612.203 637.916 613.303C638.74 615.556 639.923 619.132 639.923 621.115C639.923 624.159 638.911 630 638.911 630C635.386 630 575.553 630 575.553 630C575.553 630 573.083 621.819 578.404 621.167C583.725 620.515 587.245 619.989 587.245 619.989L616.808 606.784C617.323 606.554 617.926 606.795 618.14 607.317L620.082 612.035C620.082 612.035 625.007 614.338 628.087 614.338C630.039 614.338 633.15 613.106 635.168 612.204Z" fill="#E4E4E4"/>
<path fill-rule="evenodd" clip-rule="evenodd" d="M702.83 361L684.857 431.547H629.959L638.145 361H702.83Z" fill="#69A1AC"/>
<path fill-rule="evenodd" clip-rule="evenodd" d="M712.94 361C721.811 387.642 716.31 431.547 716.31 431.547H660.289L644.885 361H712.94Z" fill="#89C5CC"/>
<path fill-rule="evenodd" clip-rule="evenodd" d="M569.499 387.64L596.739 352.473L609.765 369.104L579.662 393.03C573.252 407.125 569.205 413.395 567.521 411.839C566.101 410.528 566.428 408.825 566.73 407.257C566.964 406.036 567.183 404.896 566.549 404.085C565.099 402.235 558.673 404.314 552.659 406.548C546.644 408.782 547.653 405.537 548.748 403.764C553.949 398.215 560.866 392.84 569.499 387.64ZM761.792 406.147C757.599 399.994 737.425 337.12 737.425 337.12L714.157 340.483C714.157 340.483 745.484 406.936 747.8 410.945C750.809 416.154 748.145 424.712 746.338 430.514C746.058 431.412 745.799 432.243 745.585 432.987C749.377 434.079 750.82 431.912 752.342 429.627C754.06 427.046 755.879 424.315 761.294 425.962C763.386 426.598 765.396 427.415 767.36 428.214C774.144 430.971 780.376 433.505 787.535 427.575C788.67 426.635 789.627 423.562 786.02 421.773C777.035 417.314 763.843 409.155 761.792 406.147Z" fill="#B28B67"/>
<path fill-rule="evenodd" clip-rule="evenodd" d="M657.56 248.904L647.695 248.608C636.922 292.297 613.247 333.946 576.669 373.554L613.221 407.038C647.78 353.104 666.273 299.87 657.56 248.904Z" fill="#191847"/>
<path fill-rule="evenodd" clip-rule="evenodd" d="M716.538 363.848L630.756 375.904C630.756 375.904 650.398 299.36 643.29 248.787L668.625 241.302C693.55 271.092 704.942 310.482 716.538 363.848Z" fill="#DDE3E9"/>
<path fill-rule="evenodd" clip-rule="evenodd" d="M760.687 395.066C736.458 290.734 669.194 241.222 669.194 241.222L669.176 241.243C669.172 241.237 669.167 241.232 669.163 241.226L667.474 241.464C664.457 241.994 658.291 243.137 658.291 243.137L654.546 261.853C658.138 294.613 661.436 394.96 661.436 394.96L717.586 387.068C718.127 391.614 718.562 396.241 718.876 400.942L760.687 395.066Z" fill="#2F3676"/>
<path fill-rule="evenodd" clip-rule="evenodd" d="M717.638 387.508C715.312 367.706 710.953 349.419 705.669 333.057C706.936 353.175 707.103 377.573 701.995 389.706L717.638 387.508Z" fill="black" fill-opacity="0.1"/>
<path fill-rule="evenodd" clip-rule="evenodd" d="M700.369 354.78L670.833 345.809L672.641 358.677L700.369 354.78Z" fill="white" fill-opacity="0.2"/>
<path fill-rule="evenodd" clip-rule="evenodd" d="M407.181 307.584C414.455 311.971 421.602 314.091 424.957 313.226C433.37 311.056 434.144 280.257 427.634 268.115C421.125 255.974 387.66 250.681 385.974 274.738C385.388 283.087 388.892 290.539 394.068 296.619L384.787 339.909H411.747L407.181 307.584Z" fill="#B28B67"/>
<path fill-rule="evenodd" clip-rule="evenodd" d="M416.985 254.891C413.301 253.767 407.954 253.386 405.704 253.644C406.984 250.576 407.491 247.157 407.077 243.829C406.675 240.595 405.231 237.841 403.895 234.956C403.28 233.625 402.582 232.303 401.542 231.285C400.482 230.249 399.141 229.565 397.734 229.238C396.295 228.904 394.79 228.932 393.348 229.235C392.711 229.369 392.138 229.661 391.513 229.823C390.872 229.989 390.562 229.588 390.097 229.185C388.976 228.214 387.334 227.734 385.917 227.563C384.326 227.37 382.676 227.61 381.16 228.133C379.684 228.643 378.265 229.47 377.198 230.674C376.723 231.211 376.292 231.821 376.011 232.495C375.896 232.771 375.877 232.935 375.601 233.037C375.346 233.13 375.048 233.133 374.785 233.222C372.24 234.085 370.063 236.053 368.878 238.58C368.187 240.054 367.86 242.65 367.949 245.559C368.039 248.468 370.664 256.058 373.119 258.827C375.31 261.298 378.532 262.929 381.64 263.643C379.577 266.003 378.203 268.952 377.188 271.952C376.084 275.21 375.402 278.595 375.149 282.045C374.91 285.322 374.888 288.788 375.656 291.995C376.374 294.994 377.91 297.455 380.474 299.016C381.648 299.731 382.912 300.268 384.183 300.759C385.436 301.243 386.692 301.713 388.004 301.985C390.487 302.498 393.349 302.41 395.262 300.432C395.951 299.719 396.709 298.823 397.212 297.952C397.393 297.639 397.502 297.434 397.282 297.128C397.019 296.761 396.593 296.48 396.255 296.193C394.327 294.557 393.133 292.374 392.833 289.778C392.527 287.145 393.234 283.747 395.792 282.598C398.95 281.179 402.428 282.807 405.234 284.325C406.427 280.112 408.877 276.319 412.716 274.386C416.965 272.248 421.84 271.998 426.205 270.164C427.343 269.686 428.502 269.143 429.339 268.169C429.689 267.762 430.1 267.234 430.24 266.696C430.423 265.989 429.967 265.396 429.615 264.844C427.749 261.921 420.669 256.016 416.985 254.891Z" fill="#191847"/>
<path fill-rule="evenodd" clip-rule="evenodd" d="M382.54 629.932C430.311 629.932 469.037 592.941 469.037 547.309C469.037 501.678 430.311 464.686 382.54 464.686C334.769 464.686 296.043 501.678 296.043 547.309C296.043 592.941 334.769 629.932 382.54 629.932Z" fill="#C5CFD6"/>
<path fill-rule="evenodd" clip-rule="evenodd" d="M517.015 542.903C521.193 557.548 531.602 585.306 545.995 617.184L559.672 613.191C547.707 539.837 537.749 491.273 532.045 476.492C528.276 466.726 499.764 467.87 503.044 487.52C504.419 495.761 509.861 517.826 517.015 542.903ZM460.799 490.947C438.495 495.571 392.25 511.918 379.044 517.142C370.745 520.425 376.095 531.558 383.175 530.584C384.375 530.419 388.617 529.944 394.946 529.236C415.276 526.96 457.142 522.273 488.896 517.699C505.615 515.291 496.621 483.952 479.261 487.268C473.421 488.384 467.209 489.618 460.799 490.947Z" fill="#B28B67"/>
<path fill-rule="evenodd" clip-rule="evenodd" d="M532.919 468.214C530.639 460.767 426.981 434.335 426.981 434.335H418.487V442.256L489.916 478.644C489.821 479.818 489.879 481.059 490.11 482.368C489.594 509.343 501.131 529.495 512.553 549.447C520.023 562.494 527.444 575.456 531.413 590.185L557.656 586.267C556.891 584.31 555.682 575.489 554.03 563.428C549.862 533.016 542.873 482.007 533.067 468.512C533.032 468.465 532.998 468.418 532.962 468.371C532.949 468.319 532.935 468.266 532.919 468.214Z" fill="#1F28CF"/>
<path fill-rule="evenodd" clip-rule="evenodd" d="M424.422 500.254C417.886 498.945 411.867 497.776 406.717 496.872C373.452 491.034 363.751 473.214 369.486 434.335H430.778C440.79 437.213 492.822 459.049 519.819 470.662C537.687 478.349 532.054 506.059 521.936 513.27C521.881 513.713 521.699 514.013 521.374 514.148C483.012 530.059 450.297 528.872 429.29 528.109C420.491 527.79 413.746 527.545 409.5 528.662L402.847 507.66L424.422 500.254Z" fill="#2B44FF"/>
<path fill-rule="evenodd" clip-rule="evenodd" d="M386.043 515.783C386.004 514.613 385.017 513.678 383.853 513.797C381.471 514.041 377.744 514.543 375.965 515.411C373.234 516.744 368.438 520.212 368.438 520.212C369.983 523.383 396.213 577.198 396.213 577.198C396.213 577.198 404.634 575.838 402.886 570.766C401.139 565.695 400.067 562.299 400.067 562.299L398.953 529.926C398.934 529.363 398.454 528.927 397.892 528.962L392.808 529.282C392.808 529.282 388.583 525.86 387.233 523.09C386.377 521.334 386.118 517.993 386.043 515.783Z" fill="#E4E4E4"/>
<path fill-rule="evenodd" clip-rule="evenodd" d="M542.314 609.909C541.245 609.431 539.971 609.909 539.568 611.008C538.743 613.258 537.56 616.829 537.56 618.81C537.56 621.85 538.572 627.684 538.572 627.684C542.097 627.684 601.93 627.684 601.93 627.684C601.93 627.684 604.4 619.514 599.079 618.862C593.758 618.211 590.239 617.686 590.239 617.686L560.675 604.497C560.16 604.267 559.558 604.508 559.343 605.029L557.402 609.742C557.402 609.742 552.476 612.041 549.396 612.041C547.444 612.041 544.332 610.81 542.314 609.909Z" fill="#E4E4E4"/>
<path fill-rule="evenodd" clip-rule="evenodd" d="M513.61 445.166L477.778 418.835L469.856 438.429L505.34 453.154C515.375 464.95 520.987 469.868 522.175 467.907C523.176 466.253 522.393 464.705 521.672 463.279C521.11 462.169 520.586 461.132 520.972 460.177C521.853 457.997 528.595 458.227 534.982 458.718C541.37 459.21 539.509 456.365 537.968 454.961C531.448 451.055 523.328 447.79 513.61 445.166ZM325.697 491.562C328.989 484.879 340.199 419.744 340.199 419.744L363.674 419.836C363.674 419.836 341.932 490.072 340.199 494.369C337.948 499.952 341.772 508.063 344.365 513.563C344.766 514.414 345.137 515.202 345.453 515.909C341.855 517.52 340.127 515.573 338.305 513.52C336.247 511.201 334.069 508.748 328.943 511.134C326.963 512.056 325.089 513.146 323.258 514.211C316.934 517.89 311.124 521.27 303.22 516.389C301.967 515.616 300.594 512.703 303.912 510.426C312.177 504.755 324.088 494.829 325.697 491.562Z" fill="#B28B67"/>
<path fill-rule="evenodd" clip-rule="evenodd" d="M406.91 321.172L416.624 319.505C452.664 350.66 467.467 410.514 511.644 442.22L501.011 455.41C424.373 445.914 405.377 372.907 406.91 321.172Z" fill="#E87613"/>
<path fill-rule="evenodd" clip-rule="evenodd" d="M364.567 443.328C364.567 443.328 422.989 443.328 450.515 443.328C454.442 443.328 453.702 437.653 453.134 434.789C446.582 401.74 421.004 366.114 421.004 319.068L396.213 315.178C375.707 348.18 368.616 388.813 364.567 443.328Z" fill="#DDE3E9"/>
<path fill-rule="evenodd" clip-rule="evenodd" d="M354.902 466.935C351.04 476.218 347.252 484.319 343.683 490.541H325.25C323.267 426.375 347.543 377.001 367.86 347.23C363.349 346.907 359.277 345.018 356.703 340.371C347.642 324.009 350.914 315.001 360.598 312.04C365.923 310.412 370.931 311.523 376.926 312.853C381.832 313.942 387.398 315.177 394.339 315.178C394.342 315.178 394.344 315.178 394.346 315.178C395.019 315.178 395.631 315.223 396.187 315.309L404.413 315.779C404.413 315.779 437.814 429.058 422.837 466.935H354.902Z" fill="#FF9B21"/>
<path fill-rule="evenodd" clip-rule="evenodd" d="M354.902 466.934C359.971 454.754 365.168 440.536 370.169 425.853C372.031 442.023 375.131 458.263 380.293 466.934H354.902Z" fill="black" fill-opacity="0.1"/>
</svg>
