<svg width="100%" height="100%" style="opacity:0.75" id="svg" viewBox="0 0 1440 400" xmlns="http://www.w3.org/2000/svg" class="transition duration-300 ease-in-out delay-150"><defs><linearGradient id="gradient" x1="98%" y1="35%" x2="2%" y2="65%"><stop offset="5%" stop-color="#7bdcb566"></stop><stop offset="95%" stop-color="#8fd3f466"></stop></linearGradient></defs><path d="M 0,400 C 0,400 0,100 0,100 C 19.22989183965742,94.86397061827711 38.45978367931484,89.72794123655422 64,84 C 89.54021632068516,78.27205876344578 121.39075712239804,71.95220567206023 148,82 C 174.60924287760196,92.04779432793977 195.97718783109306,118.46323607520486 216,128 C 236.02281216890694,137.53676392479514 254.70049155322977,130.19485002712025 279,131 C 303.29950844677023,131.80514997287975 333.22084595598784,140.7573638163141 359,137 C 384.77915404401216,133.2426361836859 406.41612462281876,116.77569470762333 429,110 C 451.58387537718124,103.22430529237667 475.11465555273685,106.13985735319264 502,112 C 528.8853444472632,117.86014264680736 559.1252531662341,126.66487587960614 587,131 C 614.8747468337659,135.33512412039386 640.3843317823266,135.20063912838285 658,127 C 675.6156682176734,118.79936087161715 685.3374197044595,102.53256760686247 709,99 C 732.6625802955405,95.46743239313753 770.2659893998352,104.6690904441673 796,111 C 821.7340106001648,117.3309095558327 835.5986226961994,120.79107061646833 854,120 C 872.4013773038006,119.20892938353167 895.339519815367,114.16662708995943 924,100 C 952.660480184633,85.83337291004057 987.043298042332,62.54242102369392 1016,67 C 1044.956701957668,71.45757897630608 1068.487288015304,103.66368881526483 1088,115 C 1107.512711984696,126.33631118473517 1123.0075498964516,116.80282371524672 1146,112 C 1168.9924501035484,107.19717628475328 1199.4825123988894,107.12501632374828 1222,97 C 1244.5174876011106,86.87498367625172 1259.062400507991,66.69711098976008 1284,76 C 1308.937599492009,85.30288901023992 1344.2678855691452,124.0865397172114 1372,133 C 1399.7321144308548,141.9134602827886 1419.8660572154274,120.9567301413943 1440,100 C 1440,100 1440,400 1440,400 Z" stroke="none" stroke-width="0" fill="url(#gradient)" class="transition-all duration-300 ease-in-out delay-150 path-0" transform="rotate(-180 720 200)"></path><defs><linearGradient id="gradient" x1="98%" y1="35%" x2="2%" y2="65%"><stop offset="5%" stop-color="#7bdcb588"></stop><stop offset="95%" stop-color="#8fd3f488"></stop></linearGradient></defs><path d="M 0,400 C 0,400 0,200 0,200 C 21.666758883815255,197.31876547130082 43.33351776763051,194.63753094260164 71,201 C 98.66648223236949,207.36246905739836 132.33268781329318,222.7686417008942 156,213 C 179.66731218670682,203.2313582991058 193.33573097919674,168.28790225382147 216,174 C 238.66426902080326,179.71209774617853 270.3243882699199,226.07974928381995 298,235 C 325.6756117300801,243.92025071618005 349.3667159411236,215.39310061089873 371,203 C 392.6332840588764,190.60689938910127 412.2087479655859,194.34784827258514 435,198 C 457.7912520344141,201.65215172741486 483.7982921965329,205.2155062987606 505,199 C 526.2017078034671,192.7844937012394 542.598083248283,176.79012653237243 564,173 C 585.401916751717,169.20987346762757 611.8093748103354,177.62398757174975 636,187 C 660.1906251896646,196.37601242825025 682.1644175103756,206.7139231806286 712,200 C 741.8355824896244,193.2860768193714 779.5329551481622,169.5203197057358 804,164 C 828.4670448518378,158.4796802942642 839.703761896976,171.20479799642825 857,185 C 874.296238103024,198.79520200357175 897.6519972639339,213.66048830855124 923,218 C 948.3480027360661,222.33951169144876 975.6882490472879,216.15324876936677 1002,218 C 1028.3117509527121,219.84675123063323 1053.5950065469149,229.72651661398166 1074,218 C 1094.4049934530851,206.27348338601834 1109.931724765053,172.94068477470657 1139,171 C 1168.068275234947,169.05931522529343 1210.6780943928723,198.51074428719204 1236,196 C 1261.3219056071277,193.48925571280796 1269.3558976634574,159.01633807652524 1286,165 C 1302.6441023365426,170.98366192347476 1327.8983149532978,217.42390340670707 1355,230 C 1382.1016850467022,242.57609659329293 1411.050842523351,221.28804829664648 1440,200 C 1440,200 1440,400 1440,400 Z" stroke="none" stroke-width="0" fill="url(#gradient)" class="transition-all duration-300 ease-in-out delay-150 path-1" transform="rotate(-180 720 200)"></path><defs><linearGradient id="gradient" x1="98%" y1="35%" x2="2%" y2="65%"><stop offset="5%" stop-color="#7bdcb5ff"></stop><stop offset="95%" stop-color="#8fd3f4ff"></stop></linearGradient></defs><path d="M 0,400 C 0,400 0,300 0,300 C 16.516725244280643,302.55849054013834 33.033450488561286,305.1169810802767 59,306 C 84.96654951143871,306.8830189197233 120.38292329003545,306.0905662190316 149,311 C 177.61707670996455,315.9094337809684 199.43485635129684,326.520754043597 219,320 C 238.56514364870316,313.479245956403 255.8776513047772,289.8264176065807 281,289 C 306.1223486952228,288.1735823934193 339.0545384295945,310.17357553008026 363,324 C 386.9454615704055,337.82642446991974 401.9041949768449,343.4792802730982 422,331 C 442.0958050231551,318.5207197269018 467.3286816630259,287.9093033775271 492,275 C 516.6713183369741,262.0906966224729 540.7810783710513,266.8835062167933 565,268 C 589.2189216289487,269.1164937832067 613.5470048527685,266.55667175529965 636,279 C 658.4529951472315,291.44332824470035 679.0309022178751,318.889806762008 709,320 C 738.9690977821249,321.110193237992 778.329386275731,295.8841011966684 801,294 C 823.670613724269,292.1158988033316 829.6515526792009,313.5737884513185 852,323 C 874.3484473207991,332.4262115486815 913.064403007465,329.82074499805776 937,323 C 960.935596992535,316.17925500194224 970.0908352909389,305.1432315564506 995,311 C 1019.9091647090611,316.8567684435494 1060.5722558287787,339.6063287761398 1086,329 C 1111.4277441712213,318.3936712238602 1121.620141393946,274.43145333899014 1145,278 C 1168.379858606054,281.56854666100986 1204.947178595437,332.66785786789956 1229,332 C 1253.052821404563,331.33214213210044 1264.5911442243057,278.8971151894116 1287,271 C 1309.4088557756943,263.1028848105884 1342.688244507341,299.74368137445384 1370,312 C 1397.311755492659,324.25631862554616 1418.6558777463295,312.12815931277305 1440,300 C 1440,300 1440,400 1440,400 Z" stroke="none" stroke-width="0" fill="url(#gradient)" class="transition-all duration-300 ease-in-out delay-150 path-2" transform="rotate(-180 720 200)"></path></svg>